<svg width="53" height="53" viewBox="0 0 53 53" fill="none" xmlns="http://www.w3.org/2000/svg">
<path d="M26.5 3.16009e-07C33.5282 3.9982e-07 40.2686 2.79195 45.2383 7.76167C50.208 12.7314 53 19.4718 53 26.5C53 33.5282 50.208 40.2686 45.2383 45.2383C40.2686 50.208 33.5282 53 26.5 53C19.4718 53 12.7314 50.208 7.76167 45.2383C2.79196 40.2686 2.32198e-07 33.5282 3.16009e-07 26.5C3.9982e-07 19.4718 2.79196 12.7314 7.76167 7.76167C12.7314 2.79195 19.4718 2.32198e-07 26.5 3.16009e-07ZM14.9063 24.8438C14.467 24.8438 14.0457 25.0182 13.7351 25.3289C13.4245 25.6395 13.25 26.0607 13.25 26.5C13.25 26.9393 13.4245 27.3605 13.7351 27.6711C14.0457 27.9818 14.467 28.1563 14.9063 28.1563L34.0956 28.1563L26.9836 35.2649C26.6726 35.5759 26.4979 35.9977 26.4979 36.4375C26.4979 36.8773 26.6726 37.2991 26.9836 37.6101C27.2946 37.9211 27.7164 38.0958 28.1563 38.0958C28.5961 38.0958 29.0179 37.9211 29.3289 37.6101L39.2664 27.6726C39.4206 27.5188 39.543 27.336 39.6265 27.1348C39.71 26.9336 39.753 26.7179 39.753 26.5C39.753 26.2821 39.71 26.0664 39.6265 25.8652C39.543 25.664 39.4206 25.4812 39.2664 25.3274L29.3289 15.3899C29.0179 15.0789 28.5961 14.9042 28.1563 14.9042C27.7164 14.9042 27.2946 15.0789 26.9836 15.3899C26.6726 15.7009 26.4979 16.1227 26.4979 16.5625C26.4979 17.0023 26.6726 17.4241 26.9836 17.7351L34.0956 24.8438L14.9063 24.8438Z" fill="white"/>
</svg>
